<svg xmlns="http://www.w3.org/2000/svg" viewBox="0 0 54.36 47.24"><defs><style>.cls-1{fill:#4b991d;}</style></defs><g id="Layer_2" data-name="Layer 2"><g id="Layer_2-2" data-name="Layer 2"><path class="cls-1" d="M11.19,36.25q-.18-.47-.36-1c-.12-.34-.23-.71-.34-1.09s-.25-.77-.36-1.18-.22-.84-.33-1.28c-.06-.22-.12-.44-.17-.66l-.15-.69c-.09-.47-.2-.94-.29-1.42-.15-1-.33-2-.43-3s-.18-2.07-.25-3.11,0-2.08,0-3.1.11-2,.18-3c.05-.48.12-.95.17-1.41L9,14.65c0-.23.07-.45.11-.67.07-.43.15-.86.22-1.27s.17-.79.25-1.17.16-.74.25-1.07l.26-1,.23-.85c.07-.25.16-.49.22-.7.16-.5.29-.87.36-1.09L12.52.08C11.13,1.53-8.19,22.1,4,34.89a11.23,11.23,0,0,0,7,2.66h.61l-.17-.42c-.09-.27-.2-.56-.31-.87"/><path class="cls-1" d="M21.5,21.63A36,36,0,0,0,19.08,17C10.86,3.5,12.6,0,12.6,0l-.08.08c-.42,1.73-1.13,4.59-1.66,6.74l.07-.19L10.66,8c0,.22-.1.46-.14.72s-.08.55-.13.86-.09.63-.14,1-.07.71-.11,1.09-.08.77-.11,1.17,0,.83-.06,1.27l0,.65v.68c0,.45,0,.91,0,1.38,0,.94.06,1.91.17,2.89s.23,2,.36,3,.35,1.95.6,2.9.49,1.87.74,2.76c.14.44.29.87.43,1.29l.21.62.23.6c.16.4.31.78.45,1.15s.32.71.47,1,.29.66.43,1l.42.83.37.73c.12.22.25.44.35.64l.34.59a11.22,11.22,0,0,0,1.89-1,14.47,14.47,0,0,1,4.1-14.15"/><path class="cls-1" d="M54.34,6.5l-4.27,8c-.12.28-.33.73-.6,1.35-.12.26-.24.56-.4.87l-.5,1L48,18.83c-.21.4-.46.81-.7,1.25s-.49.88-.77,1.34-.58.93-.89,1.41l-.46.73-.51.73c-.35.49-.69,1-1.06,1.51-.77,1-1.54,2-2.41,3s-1.77,2-2.69,3-1.91,1.9-2.92,2.77-2,1.7-3,2.5c-.5.39-1,.75-1.51,1.11-.24.19-.49.36-.73.54l-.74.5-1.42.94L26.8,41c-.44.26-.86.52-1.27.75l-1.2.64-1.06.55-.52.26.21.21.37.34a14.54,14.54,0,0,0,9,3.52c22.79-1.7,22.05-38.15,22-40.74"/><path class="cls-1" d="M26.18,36.55l1.42-.71.74-.37.74-.42c.5-.28,1-.56,1.53-.86,1-.64,2.08-1.27,3.1-2s2.06-1.5,3.08-2.28,2-1.64,2.91-2.52,1.8-1.76,2.66-2.62c.42-.45.81-.9,1.2-1.33l.58-.65c.19-.22.36-.44.54-.66l1-1.26c.33-.42.62-.83.91-1.23s.58-.77.84-1.13.48-.73.7-1.06l.62-.93c.19-.29.35-.57.5-.81l.93-1.55-.11.24c1.35-2.53,3.15-5.87,4.24-7.9,0-.1,0-.15,0-.15S53,11.22,33.42,17a46.64,46.64,0,0,0-7.14,2.74,14.26,14.26,0,0,0-7.56,16.5,13.83,13.83,0,0,0,1,2.82l.83-.28c.27-.1.59-.19.9-.31l1-.38,1.12-.43,1.24-.54,1.36-.61"/></g></g></svg>