<?xml version="1.0" encoding="utf-8"?>
<!-- Generator: Adobe Illustrator 24.1.0, SVG Export Plug-In . SVG Version: 6.00 Build 0)  -->
<svg version="1.1" id="Layer_1" xmlns="http://www.w3.org/2000/svg" xmlns:xlink="http://www.w3.org/1999/xlink" x="0px" y="0px"
	 viewBox="0 0 628.4 55.2" style="enable-background:new 0 0 628.4 55.2;" xml:space="preserve">
<style type="text/css">
	.st0{fill:#FFFFFF;}
	.st1{fill:none;stroke:#FFFFFF;stroke-width:2;stroke-miterlimit:10;}
</style>
<g id="Layer_2_1_">
	<g id="Layer_2-2">
		<path class="st0" d="M298,40.2c-0.1-0.3-0.2-0.6-0.4-1c-0.1-0.3-0.2-0.7-0.3-1.1c-0.1-0.4-0.2-0.8-0.4-1.2
			c-0.1-0.4-0.2-0.8-0.3-1.3c-0.1-0.2-0.1-0.4-0.2-0.7l-0.1-0.7c-0.1-0.5-0.2-0.9-0.3-1.4c-0.1-1-0.3-2-0.4-3s-0.2-2.1-0.2-3.1
			s0-2.1,0-3.1s0.1-2,0.2-3c0.1-0.5,0.1-1,0.2-1.4l0.1-0.7c0-0.2,0.1-0.4,0.1-0.7c0.1-0.4,0.1-0.9,0.2-1.3s0.2-0.8,0.2-1.2
			c0.1-0.4,0.2-0.7,0.2-1.1l0.3-1l0.2-0.9c0.1-0.2,0.2-0.5,0.2-0.7c0.2-0.5,0.3-0.9,0.4-1.1l1.6-6.7c-1.4,1.4-20.7,22-8.5,34.8
			c2,1.7,4.4,2.6,7,2.7h0.6l-0.2-0.4C298.1,40.9,298,40.6,298,40.2"/>
		<path class="st0" d="M308.3,25.6c-0.7-1.6-1.5-3.1-2.4-4.6c-8.2-13.5-6.5-17-6.5-17l-0.1,0.1c-0.4,1.7-1.1,4.6-1.7,6.7l0.1-0.2
			l-0.3,1.4c0,0.2-0.1,0.5-0.1,0.7c0,0.3-0.1,0.6-0.1,0.9c-0.1,0.3-0.1,0.6-0.1,1s-0.1,0.7-0.1,1.1c0,0.4-0.1,0.8-0.1,1.2
			s0,0.8-0.1,1.3v0.6v0.7c0,0.4,0,0.9,0,1.4c0,0.9,0.1,1.9,0.2,2.9s0.2,2,0.4,3s0.4,2,0.6,2.9s0.5,1.9,0.7,2.8
			c0.1,0.4,0.3,0.9,0.4,1.3l0.2,0.6l0.2,0.6c0.2,0.4,0.3,0.8,0.4,1.2s0.3,0.7,0.5,1s0.3,0.7,0.4,1l0.4,0.8l0.4,0.7
			c0.1,0.2,0.2,0.4,0.4,0.6l0.3,0.6c0.7-0.3,1.3-0.6,1.9-1C302.9,34.7,304.5,29.3,308.3,25.6"/>
		<path class="st0" d="M341.1,10.5l-4.3,8c-0.1,0.3-0.3,0.7-0.6,1.4c-0.1,0.3-0.2,0.6-0.4,0.9l-0.5,1l-0.6,1.1
			c-0.2,0.4-0.5,0.8-0.7,1.2c-0.2,0.4-0.5,0.9-0.8,1.3s-0.6,0.9-0.9,1.4l-0.5,0.7l-0.5,0.7c-0.4,0.5-0.7,1-1.1,1.5
			c-0.8,1-1.5,2-2.4,3s-1.8,2-2.7,3c-0.9,1-1.9,1.9-2.9,2.8c-1,0.9-2,1.7-3,2.5c-0.5,0.4-1,0.8-1.5,1.1c-0.2,0.2-0.5,0.4-0.7,0.5
			l-0.7,0.5l-1.4,0.9l-1.4,0.8c-0.4,0.3-0.9,0.5-1.3,0.8l-1.2,0.6l-1.1,0.5l-0.5,0.3l0.2,0.2l0.4,0.3c2.5,2.2,5.7,3.4,9,3.5
			C341.9,49.6,341.2,13.1,341.1,10.5"/>
		<path class="st0" d="M313,40.5l1.4-0.7l0.7-0.4l0.7-0.4c0.5-0.3,1-0.6,1.5-0.9c1-0.6,2.1-1.3,3.1-2s2.1-1.5,3.1-2.3s2-1.6,2.9-2.5
			c0.9-0.9,1.8-1.8,2.7-2.6c0.4-0.5,0.8-0.9,1.2-1.3l0.6-0.6c0.2-0.2,0.4-0.4,0.5-0.7l1-1.3c0.3-0.4,0.6-0.8,0.9-1.2
			c0.3-0.4,0.6-0.8,0.8-1.1c0.3-0.4,0.5-0.7,0.7-1.1l0.6-0.9c0.2-0.3,0.4-0.6,0.5-0.8l0.9-1.6l-0.1,0.2c1.4-2.5,3.1-5.9,4.2-7.9
			c0-0.1,0-0.2,0-0.2s-1.3,4.9-20.9,10.6c-2.5,0.7-4.8,1.6-7.1,2.7c-6.1,3-9.3,9.9-7.6,16.5c0.2,1,0.6,1.9,1,2.8l0.8-0.3
			c0.3-0.1,0.6-0.2,0.9-0.3l1-0.4l1.1-0.4l1.2-0.5L313,40.5"/>
	</g>
</g>
<line class="st1" x1="276" y1="33" x2="35.9" y2="33"/>
<line class="st1" x1="592" y1="33" x2="351.9" y2="33"/>
</svg>
