<svg xmlns="http://www.w3.org/2000/svg" viewBox="0 0 182.59 95.54"><defs><style>.cls-1{fill:#fff;}</style></defs><g id="Layer_2" data-name="Layer 2"><g id="Layer_2-2" data-name="Layer 2"><path class="cls-1" d="M18.19,70.06H7.06L5.22,74.38H0L10,50h5.25L8.8,65.72h7.62L13,57.37,16.9,54l8.31,20.38H20Z"/><path class="cls-1" d="M43.79,57v15.4A10.07,10.07,0,0,1,42.92,76a9.47,9.47,0,0,1-2,2.92,9.57,9.57,0,0,1-3,2,9.61,9.61,0,0,1-8.4-.56A9.52,9.52,0,0,1,26,76.88l0-.07,0,0,3.83-1.67a4.06,4.06,0,0,0,.89,1.09,5.58,5.58,0,0,0,1.14.77,7.29,7.29,0,0,0,1.26.45,5.4,5.4,0,0,0,1.23.16,4.29,4.29,0,0,0,1.77-.39,4.66,4.66,0,0,0,1.55-1.11,5.68,5.68,0,0,0,1.08-1.74,6.08,6.08,0,0,0,.4-2.27V65.69a4.53,4.53,0,0,0-.4-1.9,4.93,4.93,0,0,0-1.08-1.53,5.36,5.36,0,0,0-1.56-1,4.85,4.85,0,0,0-1.9-.38,4.8,4.8,0,0,0-1.89.38,5,5,0,0,0-1.55,1,4.6,4.6,0,0,0-1,1.54,4.69,4.69,0,0,0-.39,1.91,4.63,4.63,0,0,0,.39,1.89,4.93,4.93,0,0,0,1,1.54,5.05,5.05,0,0,0,1.55,1,4.63,4.63,0,0,0,1.89.39,4.24,4.24,0,0,0,1.88-.39h0l0,0,1.74,3.07,0,0a6.45,6.45,0,0,1-4.2,1.38A8.83,8.83,0,0,1,30.12,74a8.93,8.93,0,0,1-2.89-1.93,9.23,9.23,0,0,1-1.93-2.87,9,9,0,0,1,0-7,9.26,9.26,0,0,1,1.93-2.85,9.1,9.1,0,0,1,2.89-1.93,9,9,0,0,1,3.55-.71,6.41,6.41,0,0,1,5.49,2.65V57Z"/><path class="cls-1" d="M60.06,57.68l-.42.7-1.77,3.16,0,0a4.83,4.83,0,0,0-2.46-.66,5,5,0,0,0-1.71.29,4.6,4.6,0,0,0-1.42.84,5.05,5.05,0,0,0-1.07,1.27,4.38,4.38,0,0,0-.57,1.56v9.57H45.87V57H50.6v2.26A6.26,6.26,0,0,1,56,56.71a8.93,8.93,0,0,1,4,1Z"/><path class="cls-1" d="M67.85,56.71a8.77,8.77,0,0,1,3.51.71,9.43,9.43,0,0,1,2.86,1.93,9.26,9.26,0,0,1,1.93,2.85,8.88,8.88,0,0,1,0,7,9.08,9.08,0,0,1-4.79,4.78,9,9,0,0,1-7,0A9.09,9.09,0,0,1,61.49,72a8.92,8.92,0,0,1-1.93-2.85,8.77,8.77,0,0,1,0-7,8.92,8.92,0,0,1,1.93-2.85,9.26,9.26,0,0,1,2.85-1.93A8.77,8.77,0,0,1,67.85,56.71Zm0,13.81a3.46,3.46,0,0,0,1.62-.39,4.18,4.18,0,0,0,1.32-1.06,5.22,5.22,0,0,0,.9-1.56A5.51,5.51,0,0,0,72,65.58a5.28,5.28,0,0,0-.33-1.86,4.83,4.83,0,0,0-.9-1.53,4.53,4.53,0,0,0-1.32-1,3.58,3.58,0,0,0-1.62-.38,3.65,3.65,0,0,0-1.63.38,4.49,4.49,0,0,0-1.34,1A4.86,4.86,0,0,0,64,63.72a5.28,5.28,0,0,0-.33,1.86A5.51,5.51,0,0,0,64,67.51a5.25,5.25,0,0,0,.91,1.56,4.14,4.14,0,0,0,1.34,1.06A3.53,3.53,0,0,0,67.85,70.52Z"/><path class="cls-1" d="M167.71,60.91a3.59,3.59,0,0,1,.42-1.42,6.2,6.2,0,0,1,.85-1.24,9.3,9.3,0,0,1,2.32-1.87,13.38,13.38,0,0,1,1.31-.66A13,13,0,0,1,174,55.2a11.24,11.24,0,0,1,1.41-.37,7.87,7.87,0,0,1,1.46-.17c-.41.29-.82.53-1.23.77s-.83.47-1.25.69l-1.25.65c-.42.21-.84.41-1.24.62a14.86,14.86,0,0,0-2.29,1.47A7,7,0,0,0,167.71,60.91Z"/><path class="cls-1" d="M168.79,57.58a2.48,2.48,0,0,1-.06-1,3.92,3.92,0,0,1,.31-1,6.14,6.14,0,0,1,1.25-1.66A7.44,7.44,0,0,1,172,52.7a5.07,5.07,0,0,1,1-.38,6.44,6.44,0,0,1,1.06-.15,9.29,9.29,0,0,1,1,0l1,0c.67,0,1.32.07,1.95.05a6.52,6.52,0,0,0,1.8-.27,4,4,0,0,0,1.63-.93c.36-.37.7-.77,1.06-1.15a2.57,2.57,0,0,0-.14.77,12.65,12.65,0,0,1-.75,2.53,13.79,13.79,0,0,1-.75,1.55l-.12.2-.11.17-.24.35a8.17,8.17,0,0,1-.5.7,5.43,5.43,0,0,1-1.3,1.23,5.88,5.88,0,0,1-.77.44c-.26.12-.53.23-.79.32a11,11,0,0,1-5,.64,14.36,14.36,0,0,0,3.2-.68,13,13,0,0,0,1.49-.62,7.33,7.33,0,0,0,1.33-.8,4.7,4.7,0,0,0,1-1.11l.42-.67.21-.35.1-.18.09-.16a12.68,12.68,0,0,0,.63-1.45c.2-.5.35.08-.37.31a7,7,0,0,1-2.15.3,19.63,19.63,0,0,1-2.05-.12c-.66-.06-1.32-.12-1.94-.13a5.53,5.53,0,0,0-.92.07,3.88,3.88,0,0,0-.87.24,7,7,0,0,0-1.65.94,5.81,5.81,0,0,0-1.34,1.37A2.86,2.86,0,0,0,168.79,57.58Z"/><path class="cls-1" d="M167.71,60.78c-.27-.78-.53-1.49-.81-2.21s-.55-1.42-.85-2.12-.59-1.39-.93-2.07c-.07-.17-.16-.33-.25-.5s-.18-.34-.27-.51-.2-.32-.3-.49a2.2,2.2,0,0,0-.17-.25,2.2,2.2,0,0,1-.17-.25A3.4,3.4,0,0,1,165,53a4.58,4.58,0,0,1,.46.42,4.36,4.36,0,0,1,.41.46A9.05,9.05,0,0,1,167.14,56a9.91,9.91,0,0,1,.65,2.34A5.91,5.91,0,0,1,167.71,60.78Z"/><path class="cls-1" d="M168.05,54.29A4.32,4.32,0,0,0,167,52.38a6.19,6.19,0,0,0-1.69-1.28,9.83,9.83,0,0,0-2-.73c-.71-.19-1.43-.33-2.17-.48l.7-.57c0,1,0,2,0,2.93,0,.48,0,1,0,1.43,0,.23,0,.45,0,.67A4.53,4.53,0,0,0,162,55a5.29,5.29,0,0,0,1.35,2.31,5.69,5.69,0,0,0,2.42,1.44,4.87,4.87,0,0,1-2.83-1,5.54,5.54,0,0,1-1.88-2.48,5.42,5.42,0,0,1-.32-1.56c0-.52-.05-1-.06-1.49,0-1,0-2,0-2.92V48.6l.69.16a23,23,0,0,1,2.23.59,9.55,9.55,0,0,1,2.14,1,5.91,5.91,0,0,1,1.68,1.7A3.89,3.89,0,0,1,168.05,54.29Z"/><path class="cls-1" d="M98.4,64.69a7.22,7.22,0,0,1,2.12,2.49,7,7,0,0,1,.8,3.28,7.12,7.12,0,0,1-.57,2.86,7.9,7.9,0,0,1-1.57,2.33A7.23,7.23,0,0,1,94,77.8H88.9l-2.26-4.24h7.45A1.81,1.81,0,0,0,95,73.3a2.87,2.87,0,0,0,.74-.64,3.43,3.43,0,0,0,.51-.87,2.63,2.63,0,0,0,.19-1,2.75,2.75,0,0,0-.19-1,2.87,2.87,0,0,0-.54-.89,3.13,3.13,0,0,0-.78-.63A1.89,1.89,0,0,0,94,68H85.29V77.8H80.42V53.42H92.28a7.16,7.16,0,0,1,2.83.58,7.33,7.33,0,0,1,2.33,1.56A7.53,7.53,0,0,1,99,57.89a7.17,7.17,0,0,1,.57,2.84,6.88,6.88,0,0,1-.31,2.1A7.89,7.89,0,0,1,98.4,64.69ZM92.28,63.2A2,2,0,0,0,93.2,63a3,3,0,0,0,.78-.59,2.56,2.56,0,0,0,.54-.87,2.93,2.93,0,0,0,.19-1.06,2.89,2.89,0,0,0-.73-2,2.85,2.85,0,0,0-.78-.61,2,2,0,0,0-.92-.22h-7V63.2Z"/><path class="cls-1" d="M121.35,60.41V77.8H116.8V69.09a4.57,4.57,0,0,0-.39-1.89,4.62,4.62,0,0,0-1.06-1.53,4.82,4.82,0,0,0-1.56-1,4.9,4.9,0,0,0-1.86-.37,4.52,4.52,0,0,0-1.88.39,5.24,5.24,0,0,0-1.55,1,4.72,4.72,0,0,0-1.06,1.53,4.9,4.9,0,0,0-.38,1.91,4.68,4.68,0,0,0,.38,1.85,4.94,4.94,0,0,0,1.06,1.53,5.31,5.31,0,0,0,1.55,1,4.68,4.68,0,0,0,1.88.38,4,4,0,0,0,1.84-.38h0v.07l1.73,3.09,0,0a6.68,6.68,0,0,1-4.21,1.32,8.86,8.86,0,0,1-3.48-.69A9.06,9.06,0,0,1,105,75.47,9.26,9.26,0,0,1,103,72.62a9,9,0,0,1,0-7A9.26,9.26,0,0,1,105,62.78a9.09,9.09,0,0,1,2.85-1.93,8.53,8.53,0,0,1,3.48-.71,7,7,0,0,1,3.17.67,6.67,6.67,0,0,1,2.33,1.95V60.41Z"/><path class="cls-1" d="M124.17,53.46h4.63l0,24.34h-4.63Zm15.94,9c1,1.39,1.55,3.59,1.55,6.61V77.8H137V69.13q0-.93-.06-1.8a4,4,0,0,0-.36-1.53,2.31,2.31,0,0,0-1-1,4.21,4.21,0,0,0-2-.38,5.19,5.19,0,0,0-2.19.55l0,0,0-.07-1.67-3,0,0a6.43,6.43,0,0,1,2-1.21,7,7,0,0,1,2.43-.4Q138.38,60.24,140.11,62.5Z"/><path class="cls-1" d="M143.78,53.46h4.63v4.07h-4.63Zm0,24.34V60.41h4.63V77.8Z"/><path class="cls-1" d="M169.17,60.41V77.8h-4.55V69.09a4.57,4.57,0,0,0-.39-1.89,4.92,4.92,0,0,0-2.62-2.56,4.9,4.9,0,0,0-1.86-.37,4.52,4.52,0,0,0-1.88.39,5.24,5.24,0,0,0-1.55,1,4.57,4.57,0,0,0-1.06,1.53,4.72,4.72,0,0,0-.38,1.91,4.51,4.51,0,0,0,.38,1.85,4.78,4.78,0,0,0,1.06,1.53,5.31,5.31,0,0,0,1.55,1,4.68,4.68,0,0,0,1.88.38,4,4,0,0,0,1.84-.38h0v.07l1.74,3.09,0,0a6.68,6.68,0,0,1-4.21,1.32,8.86,8.86,0,0,1-3.48-.69,9.06,9.06,0,0,1-2.85-1.92,9.26,9.26,0,0,1-1.93-2.85,9,9,0,0,1,0-7,9.26,9.26,0,0,1,1.93-2.85,9.09,9.09,0,0,1,2.85-1.93,8.53,8.53,0,0,1,3.48-.71,7.08,7.08,0,0,1,3.17.67,6.67,6.67,0,0,1,2.33,1.95V60.41Z"/><path class="cls-1" d="M84.23,95.54A4.47,4.47,0,0,1,82.1,95a3.75,3.75,0,0,1-1.53-1.48,5.4,5.4,0,0,1,0-4.83,4.06,4.06,0,0,1,1.58-1.55,4.34,4.34,0,0,1,2.16-.55,3.5,3.5,0,0,1,2,.54,3.68,3.68,0,0,1,1.23,1.26l-.12.3L87.61,87h1.74v8.37H87.47V93.15l.22.49a3.27,3.27,0,0,1-.38.51,5.24,5.24,0,0,1-.72.64,4.1,4.1,0,0,1-1,.54A4,4,0,0,1,84.23,95.54ZM84.74,94A3.07,3.07,0,0,0,86,93.72,2.57,2.57,0,0,0,87,93a2.86,2.86,0,0,0,.52-1.13V90.2a2.6,2.6,0,0,0-.57-1.06,2.87,2.87,0,0,0-1-.71,3,3,0,0,0-1.23-.25,2.69,2.69,0,0,0-2.4,1.37,3.19,3.19,0,0,0,0,3,3,3,0,0,0,1,1A2.75,2.75,0,0,0,84.74,94Z"/><path class="cls-1" d="M92.89,83.29h1.92V87h2.28v1.47H94.81v6.86H92.89V88.48H91.37V87h1.52Z"/><path class="cls-1" d="M102.33,95.54a4.51,4.51,0,0,1-2.14-.51,3.73,3.73,0,0,1-1.52-1.48,4.74,4.74,0,0,1-.57-2.4,4.81,4.81,0,0,1,.59-2.43,4,4,0,0,1,1.57-1.55,4.38,4.38,0,0,1,2.17-.55,3.55,3.55,0,0,1,2,.54,3.65,3.65,0,0,1,1.22,1.26l-.12.3L105.7,87h1.74v8.37h-1.88V93.15l.22.49a2.33,2.33,0,0,1-.38.51,5.24,5.24,0,0,1-.72.64,4.1,4.1,0,0,1-1,.54A4,4,0,0,1,102.33,95.54Zm.5-1.56a3.11,3.11,0,0,0,1.28-.26,2.65,2.65,0,0,0,.94-.75,2.72,2.72,0,0,0,.51-1.13V90.2a2.58,2.58,0,0,0-.56-1.06,2.87,2.87,0,0,0-2.21-1,2.69,2.69,0,0,0-2.39,1.37,3,3,0,0,0-.38,1.52,2.93,2.93,0,0,0,1.42,2.53A2.71,2.71,0,0,0,102.83,94Z"/><path class="cls-1" d="M117,94.55a4.26,4.26,0,0,1-1.35.73,5.13,5.13,0,0,1-1.58.26,5,5,0,0,1-2.39-.55A4,4,0,0,1,110,93.46a4.51,4.51,0,0,1-.59-2.33,4.16,4.16,0,0,1,.63-2.31,4.32,4.32,0,0,1,1.63-1.52,4.5,4.5,0,0,1,2.17-.54,5.3,5.3,0,0,1,1.79.28,4.21,4.21,0,0,1,1.39.78l-1,1.21a4.08,4.08,0,0,0-.87-.5A3.08,3.08,0,0,0,114,88.3a2.55,2.55,0,0,0-1.36.37,2.64,2.64,0,0,0-1,1,2.85,2.85,0,0,0-.36,1.44,2.94,2.94,0,0,0,.37,1.44,2.77,2.77,0,0,0,1,1,2.94,2.94,0,0,0,3.29-.23Z"/><path class="cls-1" d="M122.38,95.54a4.47,4.47,0,0,1-2.13-.51,3.75,3.75,0,0,1-1.53-1.48,5.4,5.4,0,0,1,0-4.83,4.06,4.06,0,0,1,1.58-1.55,4.34,4.34,0,0,1,2.16-.55,3.56,3.56,0,0,1,2,.54,3.74,3.74,0,0,1,1.22,1.26l-.12.3.18-1.75h1.74v8.37h-1.88V93.15l.22.49a2.72,2.72,0,0,1-.38.51,5.24,5.24,0,0,1-.72.64,4.1,4.1,0,0,1-1,.54A4,4,0,0,1,122.38,95.54Zm.51-1.56a3.07,3.07,0,0,0,1.27-.26,2.57,2.57,0,0,0,.94-.75,2.86,2.86,0,0,0,.52-1.13V90.2a2.6,2.6,0,0,0-.57-1.06,2.87,2.87,0,0,0-1-.71,3,3,0,0,0-1.23-.25,2.69,2.69,0,0,0-2.4,1.37,3.19,3.19,0,0,0,0,3,3,3,0,0,0,1,1A2.75,2.75,0,0,0,122.89,94Z"/><path class="cls-1" d="M133.65,95.54a4,4,0,0,1-3.59-2.13,4.79,4.79,0,0,1-.56-2.36,4.63,4.63,0,0,1,.59-2.39,3.93,3.93,0,0,1,1.57-1.51,4.68,4.68,0,0,1,2.23-.53,4.29,4.29,0,0,1,1.89.43,3.31,3.31,0,0,1,1.4,1.17l-.1.67v-9.2H139V95.34h-1.88V93.25l.22.53A4.79,4.79,0,0,1,135.76,95,4.47,4.47,0,0,1,133.65,95.54Zm.58-1.6a2.86,2.86,0,0,0,2.3-1,2.87,2.87,0,0,0,.55-1.12v-1.6a2.7,2.7,0,0,0-.57-1.07,2.88,2.88,0,0,0-1-.72,3.11,3.11,0,0,0-1.28-.25,2.8,2.8,0,0,0-1.39.36,2.63,2.63,0,0,0-1,1,2.87,2.87,0,0,0-.39,1.5,2.82,2.82,0,0,0,.39,1.48,2.91,2.91,0,0,0,1,1.06A2.63,2.63,0,0,0,134.23,93.94Z"/><path class="cls-1" d="M141.59,83.93a1,1,0,0,1,.35-.74,1.16,1.16,0,0,1,.78-.31,1.12,1.12,0,0,1,.77.31,1,1,0,0,1,0,1.5,1.14,1.14,0,0,1-.77.29,1.18,1.18,0,0,1-.78-.29A1,1,0,0,1,141.59,83.93Zm.12,3h1.9v8.37h-1.9Z"/><path class="cls-1" d="M148.71,95.5a4.87,4.87,0,0,1-1.73-.32,3.3,3.3,0,0,1-1.39-.94l.79-1.09a4.23,4.23,0,0,0,1.09.76,2.63,2.63,0,0,0,1.84.15,1.18,1.18,0,0,0,.56-.34,1,1,0,0,0-.08-1.35,2.6,2.6,0,0,0-.74-.41,10.14,10.14,0,0,0-1-.3,3.69,3.69,0,0,1-1.58-1,2.16,2.16,0,0,1-.54-1.48,2.42,2.42,0,0,1,.33-1.24,2.55,2.55,0,0,1,1-.95,3.29,3.29,0,0,1,1.62-.38,5.35,5.35,0,0,1,1.56.21,4,4,0,0,1,1.29.72L151,88.77a2.3,2.3,0,0,0-.86-.58,2.47,2.47,0,0,0-.9-.19,1.9,1.9,0,0,0-.68.11,1.23,1.23,0,0,0-.5.32.76.76,0,0,0-.19.54.77.77,0,0,0,.27.67,2.39,2.39,0,0,0,.74.42l.91.32a4.52,4.52,0,0,1,1.09.49,2.54,2.54,0,0,1,.78.75,2,2,0,0,1,.29,1.11,2.83,2.83,0,0,1-.35,1.38,2.55,2.55,0,0,1-1.07,1A3.94,3.94,0,0,1,148.71,95.5Z"/><path class="cls-1" d="M154.87,83.29h1.92V87h2.29v1.47h-2.29v6.86h-1.92V88.48h-1.51V87h1.51Z"/><path class="cls-1" d="M164.31,95.54a4.47,4.47,0,0,1-2.13-.51,3.75,3.75,0,0,1-1.53-1.48,5.4,5.4,0,0,1,0-4.83,4.06,4.06,0,0,1,1.58-1.55,4.34,4.34,0,0,1,2.16-.55,3.56,3.56,0,0,1,2,.54,3.74,3.74,0,0,1,1.22,1.26l-.12.3.18-1.75h1.74v8.37h-1.88V93.15l.22.49a2.72,2.72,0,0,1-.38.51,5.24,5.24,0,0,1-.72.64,4.1,4.1,0,0,1-1,.54A4,4,0,0,1,164.31,95.54Zm.51-1.56a3,3,0,0,0,1.27-.26A2.57,2.57,0,0,0,167,93a2.73,2.73,0,0,0,.52-1.13V90.2a2.6,2.6,0,0,0-.57-1.06,2.87,2.87,0,0,0-1-.71,2.94,2.94,0,0,0-1.23-.25,2.72,2.72,0,0,0-2.4,1.37,3.19,3.19,0,0,0,0,3,3,3,0,0,0,1,1A2.78,2.78,0,0,0,164.82,94Z"/><path class="cls-1" d="M112.75,29.34a30,30,0,0,0-1-4.07,30.87,30.87,0,0,0-1.7-3.49c-.16-.27-1.31-1.84-1.57-2.18A20.16,20.16,0,0,0,107,18.2s1.91,2.49,2,2.81,1.58,2.64,1.8,3.17a29,29,0,0,1,1.07,3.88c.21,1.22.48,3.09.64,3.72a10.73,10.73,0,0,1,.27,1.95,9,9,0,0,0,.42,1.66s0-1.76,0-2.5S112.88,29.66,112.75,29.34Z"/><path class="cls-1" d="M87.32,12.41s-2.07,2-2.28,2.29a22.29,22.29,0,0,0-1.7,2.22c-.26.53-1.59,2.44-1.86,3S79.94,23,79.79,23.45c-.36,1.16-1.12,4-1.38,5.3a24.72,24.72,0,0,0-.37,3s.88-2.78,1-3.24c.59-2.12,1.49-4.85,1.65-5.49s2.55-4.4,3.14-5.72,4.82-5.56,4.82-5.56Z"/><path class="cls-1" d="M115.12,24.72a6.1,6.1,0,0,0-.59-2l-2.17-3.61-2.12-2.33-2.23-2-1.7-1.64a8.19,8.19,0,0,0-1.27-.48c-.21,0-1.12-.1-1.12-.1a1.08,1.08,0,0,0-.21-1.28c-.58-.69-1-1.06-1.27-1.38a9.69,9.69,0,0,0-1.59-1s-1.07-1.49-1.2-1.6-1.83-.84-1.83-.84-.74-.16-.74-.32a1.45,1.45,0,0,1,0-.64c.11-.21,1.06-1.27,1.06-1.27S99.46,3,99.65,2.89a7.23,7.23,0,0,0,.72-.77l.48-.46s.16-.6-.06-.76-.21-.48-.79-.58A8,8,0,0,0,98.78,0a1.52,1.52,0,0,0-1.17.42c-.58.43-1,.62-1.22,1.24a5,5,0,0,1-.79,1.57,3.28,3.28,0,0,0-.85,1.17c0,.22.1.59-.22.59s-1.41-.19-1.41-.19H91L89.65,6,88.32,7.06S87,8.28,86.79,8.38a19.36,19.36,0,0,0-2,1.33c-.26.26-2.38,2.39-2.49,2.54S80,14.64,79.89,15s-1.48,2.87-1.54,3-.95,2.23-.95,2.39-.64,3.13-.8,3.61-.79,3.25-.95,3.53a8.2,8.2,0,0,0-.74,3.1c0,1.11-.28,4.19,0,4.51a12.09,12.09,0,0,1,.7,2.39l.31,2.28L76,42.71,76.23,45l1.12,1,1.8.42A12.36,12.36,0,0,1,80.53,46a13.68,13.68,0,0,0,2-1.54L84.4,44l2.12-.64s2-.85,2.28-1,2-1.43,2-1.43a31.73,31.73,0,0,1,2.3-2.76,17.48,17.48,0,0,0,1.79-2.09L96,34.91l.69-.32,1.43,1.75a5.57,5.57,0,0,1,.64,1.17c0,.21.79,1.11.87,1.59s.83,1.11,1.14,1.54a16.11,16.11,0,0,0,2.07,1.59l2.23,1.11s1,.8,1.27,1a1.92,1.92,0,0,1,.91.58c.58.58,1.22,1.12,1.22,1.12l1.16.15s1,0,1.12-.1,1-.43,1-.43a3.4,3.4,0,0,0,.75-.95c.15-.43.31-1.22.53-1.8s.58-1.91.69-2.39-.06-.48.37-1,.53-.58.74-.85a6.08,6.08,0,0,0,.64-1.8v-1.8s-.11-5.1,0-5.63S115.12,25,115.12,24.72ZM100.67,9.88l.41.5,1.23,1.36.09.77-.45.32-.87-1-.5-1.45ZM96.18,3.61A16.31,16.31,0,0,1,97.4,2.2c.23-.22.64-.68.64-.68l.82-.63.32.54-1,1.23L97,4.07,95.81,5S96.13,3.75,96.18,3.61ZM96,33.26c-.59.53-3.24,3.82-3.24,3.82L90.5,39.47s-1.16,1.33-1.64,1.43-.11-.63-.11-.63l1.12-1s1.8-2.17,1.85-2.33,1.75-2.34,1.75-2.34l1.65-2.07,1.17-2.81-1.42,2.11-1.29,1.92A40.09,40.09,0,0,1,90.18,38a26,26,0,0,0-2.7,2.54,21,21,0,0,1-1.81,1.49L83.5,43s.74-1.27.85-1.48a8.84,8.84,0,0,1,1-1.22,4.3,4.3,0,0,0,.89-1.55c.09-.55.33-.68,0-1.27A14.52,14.52,0,0,1,85.42,39c-.16.16-.9,1.29-1.5,2.09-.37.5-1.23,2-1.46,2.14-.62.5-1.93,1.67-1.93,1.67a7.6,7.6,0,0,1-1.38.23c-.16,0-.32-.82-.32-1.09s.09-2.72.23-3.58c0-.28.36-2.32.36-2.32l.82-3a6.21,6.21,0,0,1,1.18-2.36A11.26,11.26,0,0,0,82,31.19l-.42.59c-.62.94-1.12,1.87-1.44,2.35A14.84,14.84,0,0,0,78.83,38c-.17.84-.73,6.31-.73,6.31l-.49.26-.53-.32a5.57,5.57,0,0,0-.16-1.59,8.24,8.24,0,0,1,0-2.6c0-.95,0-2.91.1-3.29s.38-2.49.53-3.39-.1-1-.1-1a6.22,6.22,0,0,1-.43.53,7.1,7.1,0,0,0-.26,1.54,10.88,10.88,0,0,1-.32,1.06,1,1,0,0,1-.37-.58,11.86,11.86,0,0,1,0-2.6c0-.64.26-2.34.26-2.65a11.19,11.19,0,0,1,.85-3.29c.37-.37.32-1.7.64-2.18a16.08,16.08,0,0,0,.64-3.08c.1-.47.9-2.12,1.22-3.23a10.4,10.4,0,0,1,1.64-2.76c.32-.48,2.28-2.55,2.34-2.71s1.8-1.59,1.91-1.91A12.45,12.45,0,0,1,87.6,8.93c.26-.22,1.52-.92,1.74-1.13s2.22-1.7,2.22-1.7l.85,0-.58.72L90.82,8l-1.33,2.27s.75-.8,1-1S91.78,7.64,92,7.43A8.46,8.46,0,0,1,93.42,6.1c.42-.21.37.69.37.69a3.66,3.66,0,0,1-.21.85,7.59,7.59,0,0,0-.32,1.17l-.58,1.32a11.87,11.87,0,0,1-1,2c-.37.42-1.59,2.65-1.59,2.65l-1.33,2.17-1.54,3.4s.37-.43.53-.67S89,17.4,89.23,17.19a37.76,37.76,0,0,0,2.39-3.34c.24-.48,1.69-2.6,1.8-2.82a30.39,30.39,0,0,0,1.27-2.81A7.9,7.9,0,0,1,95.12,7l.9.16a4.5,4.5,0,0,1,.74.85,4.94,4.94,0,0,1,.06,1.49s-.22,2.44-.22,3.13-.95,3.66-.95,3.82a24.46,24.46,0,0,1-.53,2.44,33.18,33.18,0,0,1-1.49,4,31.3,31.3,0,0,0-1.64,4l-2.44,4.88-1.81,3.5L89,33.63l1.33-2.12,2.49-4.4L94.15,24l1-3.08a23,23,0,0,1,1.27-3.23,13,13,0,0,0,.9-3.35c.06-.47.38-2.92.43-3.08s-.06-3.12-.06-3.12l.64.79.83,1.83a25.5,25.5,0,0,1,.52,2.52c0,.44-.55,4.09-.61,5.36a12.9,12.9,0,0,1-.37,2.76L97.88,25,97,27.85l.59-1,.9-2,1-4.14.41-2.77s.36-3,.36-3.28.32-1.8.32-1.8V15.9l-.26,3.25L100,23.24l-.3,2.29-.87,2.8-1,2A17.73,17.73,0,0,1,96,33.26Zm18.56,2.79a3.63,3.63,0,0,1-.47,1.67c-.14.46-.22.37-.43.53s-.21-.42-.26-.64a3.29,3.29,0,0,0-.44-1.56,7.49,7.49,0,0,0,0,1.4,10.39,10.39,0,0,0,0,1.75,5.39,5.39,0,0,1-.45,2.51,15.7,15.7,0,0,1-.37,1.68,11,11,0,0,1-.72,1.3c-.32.5-.58,0-.58,0a8.34,8.34,0,0,1,0-1.24c0-.27.16-3.13.21-3.82s0-2,0-2.44a2.12,2.12,0,0,0-.53-1.14,3.39,3.39,0,0,1-.38-.72l-.68-1c.1.16.21,2.29.42,2.92s0,1.33.19,2.39a19.22,19.22,0,0,1,0,3.24,10.37,10.37,0,0,1,0,1.37.81.81,0,0,1-.8.79c-.16,0-.63-.41-.63-.41a4.07,4.07,0,0,0-1-1.17,2.82,2.82,0,0,1-.9-1.33,10.67,10.67,0,0,1-.59-1.85c0-.43-.73-1.28-.73-1.44s-.53-.79-.53-.79l0,.63a7,7,0,0,0,.37,1.32c.21.48.38,1.47.72,2.27.23.54-.11.71-.11.71l-.75-.89-.68-.75s-1.11-1.17-1.27-1.28a16.75,16.75,0,0,1-1.54-1.85c-.32-.48-.85-1.54-1-1.7a9.22,9.22,0,0,1-1.13-1.92l-.94-1.32.32.75.59,1.64s1,1.49,1.37,2.12,1.28,2.28,1.28,2.28-1-1-1.28-1.38-1.53-1.8-2.44-3.23-.85-1.54-.85-1.54L98,32.79a9.24,9.24,0,0,0,.84-1.54A12.23,12.23,0,0,1,100,28.91c.37-.58.15-1.32.26-1.64s.37-1.38.37-1.38l.37,1.62s.16,1.4.22,1.62.69,2.28.69,2.28,1.06,2.81,1.22,3.34a4.19,4.19,0,0,0,1,1.3l-.63-2s-.75-2.12-.9-2.28a29.23,29.23,0,0,1-.69-2.87c-.16-.53-.69-3.4-.69-3.4l.42-6.41V14.38l.53-.43c.53-.42.74,0,.74,0s.06.53.06.85.63,1.86.69,2.28a10,10,0,0,0,.63,2.07c.21.43,1.17,2.18,1.43,2.71s1,2.49,1.23,3.23.63,2.5.74,2.92a5.88,5.88,0,0,0,1,1.42l-.27-1.26s-2.07-6.58-2.36-7.06a27.59,27.59,0,0,1-1.57-3.71c0-.42-.31-2.12-.37-2.44a3.88,3.88,0,0,1,.11-1l.69.75.74.79.69.9.59,1s.37-.21.31-.37-.82-1.55-.82-1.55L104.93,14H106l.93,1,1.43,1.65a25.53,25.53,0,0,0,2.49,2.28c.64.37,1.33,1.91,1.49,2.12a8.84,8.84,0,0,0,.8,1.54,6.29,6.29,0,0,1,.79,1.91s.27,1.59.37,2.28.22,4.77.22,4.77S114.48,35.28,114.53,36.05Z"/></g></g></svg>