<svg xmlns="http://www.w3.org/2000/svg" viewBox="0 0 226.38 50.61"><defs><style>.cls-1{fill:#fff;}</style></defs><g id="Layer_2" data-name="Layer 2"><g id="Layer_2-2" data-name="Layer 2"><path class="cls-1" d="M64.18,27.94H53.05L51.2,32.25H46L56,7.91h5.25L54.79,23.59H62.4L59,15.24l3.93-3.37L71.2,32.25H66Z"/><path class="cls-1" d="M89.77,14.86V30.27a10,10,0,0,1-.87,3.63,9.39,9.39,0,0,1-8.62,5.58A9.54,9.54,0,0,1,72,34.75l0-.07,0,0L75.83,33a4.06,4.06,0,0,0,.88,1.1,5.58,5.58,0,0,0,1.15.76,5.85,5.85,0,0,0,1.25.45,5,5,0,0,0,1.24.16,4.44,4.44,0,0,0,1.77-.38A4.69,4.69,0,0,0,83.67,34a5.68,5.68,0,0,0,1.08-1.74,6.25,6.25,0,0,0,.4-2.27V23.57a4.65,4.65,0,0,0-.4-1.9,4.86,4.86,0,0,0-1.08-1.54,5.07,5.07,0,0,0-1.57-1,4.63,4.63,0,0,0-1.89-.39,4.68,4.68,0,0,0-1.9.39,5,5,0,0,0-1.54,1,4.77,4.77,0,0,0-1.43,3.45,4.73,4.73,0,0,0,.38,1.89,5,5,0,0,0,1,1.54,4.83,4.83,0,0,0,3.44,1.44,4.41,4.41,0,0,0,1.88-.38h0l0,0,1.74,3.07,0,0a6.46,6.46,0,0,1-4.21,1.38A9.24,9.24,0,0,1,73.22,30a9.18,9.18,0,0,1-1.93-2.87,8.69,8.69,0,0,1-.71-3.5,8.6,8.6,0,0,1,.71-3.51,9.09,9.09,0,0,1,1.93-2.85,8.93,8.93,0,0,1,2.89-1.93,8.82,8.82,0,0,1,3.54-.72,6.42,6.42,0,0,1,5.5,2.66V14.86Z"/><path class="cls-1" d="M106.05,15.56l-.42.69-1.77,3.17,0,0a4.86,4.86,0,0,0-2.47-.66,4.79,4.79,0,0,0-1.7.3,4.54,4.54,0,0,0-1.43.83,5.23,5.23,0,0,0-1.06,1.27,4.43,4.43,0,0,0-.57,1.57v9.56H91.86V14.86h4.73v2.26A6.24,6.24,0,0,1,102,14.58a8.87,8.87,0,0,1,4,1Z"/><path class="cls-1" d="M113.84,14.58a8.61,8.61,0,0,1,3.51.72,9.09,9.09,0,0,1,2.85,1.93,8.92,8.92,0,0,1,1.93,2.85,8.75,8.75,0,0,1,0,7,8.92,8.92,0,0,1-1.93,2.85,9.11,9.11,0,0,1-2.85,1.94,9,9,0,0,1-7,0A9.24,9.24,0,0,1,105.54,27a8.86,8.86,0,0,1,0-7,9.17,9.17,0,0,1,4.79-4.78A8.61,8.61,0,0,1,113.84,14.58Zm0,13.81a3.58,3.58,0,0,0,1.62-.38A4.57,4.57,0,0,0,116.78,27a5.4,5.4,0,0,0,.9-1.57,5.47,5.47,0,0,0,.33-1.93,5.28,5.28,0,0,0-.33-1.86A4.61,4.61,0,0,0,115.46,19a3.58,3.58,0,0,0-1.62-.38,3.69,3.69,0,0,0-1.64.38,4.45,4.45,0,0,0-1.33,1,4.68,4.68,0,0,0-.91,1.53,5.28,5.28,0,0,0-.33,1.86,5.47,5.47,0,0,0,.33,1.93,5.21,5.21,0,0,0,.91,1.57A4.24,4.24,0,0,0,112.2,28,3.69,3.69,0,0,0,113.84,28.39Z"/><path class="cls-1" d="M145.32,19.14a7.33,7.33,0,0,1,2.12,2.49,7.2,7.2,0,0,1,.22,6.13,7.45,7.45,0,0,1-1.56,2.33,7.25,7.25,0,0,1-2.33,1.59,7.17,7.17,0,0,1-2.84.57h-5.11L133.56,28H141a1.81,1.81,0,0,0,.93-.26,3.06,3.06,0,0,0,.74-.65,3.12,3.12,0,0,0,.51-.87,2.74,2.74,0,0,0,.19-1,3.07,3.07,0,0,0-.19-1,2.82,2.82,0,0,0-.54-.88,3.09,3.09,0,0,0-.78-.63,1.92,1.92,0,0,0-.93-.24H132.2v9.77h-4.86V7.87h11.85a7.17,7.17,0,0,1,2.84.57A7.53,7.53,0,0,1,144.36,10a7.33,7.33,0,0,1,1.56,2.33,7,7,0,0,1,.58,2.83,6.9,6.9,0,0,1-.32,2.11A7.49,7.49,0,0,1,145.32,19.14Zm-6.13-1.5a2,2,0,0,0,.93-.22,3,3,0,0,0,.78-.59,2.77,2.77,0,0,0,.54-.87,3.16,3.16,0,0,0,.19-1.06,3.11,3.11,0,0,0-.19-1.06,2.76,2.76,0,0,0-.54-.89,2.67,2.67,0,0,0-.78-.61,2,2,0,0,0-.93-.23h-7v5.53Z"/><path class="cls-1" d="M168.27,14.86V32.25h-4.56V23.53a4.55,4.55,0,0,0-.38-1.88,4.9,4.9,0,0,0-4.49-2.93,4.51,4.51,0,0,0-1.87.39,5.24,5.24,0,0,0-1.55,1,4.57,4.57,0,0,0-1.06,1.53,4.67,4.67,0,0,0-.38,1.9,4.47,4.47,0,0,0,.38,1.85A4.71,4.71,0,0,0,155.42,27,5.31,5.31,0,0,0,157,28a4.66,4.66,0,0,0,1.87.38,4.18,4.18,0,0,0,1.85-.38h0v.07l1.74,3.09,0,0a6.68,6.68,0,0,1-4.21,1.32,8.69,8.69,0,0,1-3.48-.7,8.87,8.87,0,0,1-2.85-1.91A9.09,9.09,0,0,1,150,27.07a9,9,0,0,1,0-7,9.11,9.11,0,0,1,4.78-4.78,8.54,8.54,0,0,1,3.48-.72,7,7,0,0,1,3.16.68,6.45,6.45,0,0,1,2.33,1.94V14.86Z"/><path class="cls-1" d="M171.09,7.91h4.62l0,24.34h-4.63ZM187,17q1.54,2.09,1.55,6.61v8.69H184V23.58c0-.63,0-1.23,0-1.81a4,4,0,0,0-.36-1.52,2.31,2.31,0,0,0-1-1,4.15,4.15,0,0,0-2-.38,5.2,5.2,0,0,0-2.2.55l0,0,0-.07-1.67-3,0,0a6.14,6.14,0,0,1,2-1.21,7,7,0,0,1,2.43-.4Q185.3,14.69,187,17Z"/><path class="cls-1" d="M190.7,7.91h4.63V12H190.7Zm0,24.34V14.86h4.63V32.25Z"/><path class="cls-1" d="M216.09,14.86V32.25h-4.56V23.53a4.71,4.71,0,0,0-.38-1.88,4.94,4.94,0,0,0-1.06-1.53,4.94,4.94,0,0,0-3.43-1.4,4.47,4.47,0,0,0-1.87.39,5.24,5.24,0,0,0-1.55,1,4.57,4.57,0,0,0-1.06,1.53,4.67,4.67,0,0,0-.38,1.9,4.47,4.47,0,0,0,.38,1.85A4.71,4.71,0,0,0,203.24,27,5.31,5.31,0,0,0,204.79,28a4.63,4.63,0,0,0,1.87.38,4.18,4.18,0,0,0,1.85-.38h0v.07l1.74,3.09,0,0A6.68,6.68,0,0,1,206,32.53a8.69,8.69,0,0,1-3.48-.7,8.87,8.87,0,0,1-2.85-1.91,9.09,9.09,0,0,1-1.93-2.85,8.84,8.84,0,0,1,0-7,9.11,9.11,0,0,1,4.78-4.78,8.54,8.54,0,0,1,3.48-.72,7,7,0,0,1,3.16.68,6.45,6.45,0,0,1,2.33,1.94V14.86Z"/><path class="cls-1" d="M130.94,50.61a4.47,4.47,0,0,1-2.13-.51,3.68,3.68,0,0,1-1.54-1.49,4.79,4.79,0,0,1-.56-2.4,4.71,4.71,0,0,1,.59-2.43,4.08,4.08,0,0,1,1.58-1.56,4.45,4.45,0,0,1,2.16-.55,3.56,3.56,0,0,1,2,.54,3.62,3.62,0,0,1,1.23,1.27l-.13.3.19-1.76h1.74v8.39h-1.88V48.22l.22.49a2.88,2.88,0,0,1-.39.51,5.24,5.24,0,0,1-.72.64,3.8,3.8,0,0,1-1,.54A4,4,0,0,1,130.94,50.61Zm.51-1.56a3.11,3.11,0,0,0,1.28-.26,2.65,2.65,0,0,0,.94-.75,3,3,0,0,0,.52-1.14V45.26a2.54,2.54,0,0,0-.57-1.06,2.83,2.83,0,0,0-1-.71,3,3,0,0,0-1.24-.26,2.73,2.73,0,0,0-2.4,1.38,3,3,0,0,0-.38,1.52,2.87,2.87,0,0,0,.39,1.48,2.83,2.83,0,0,0,1,1.06A2.75,2.75,0,0,0,131.45,49.05Z"/><path class="cls-1" d="M139.62,38.33h1.92v3.73h2.29v1.48h-2.29v6.87h-1.92V43.54H138.1V42.06h1.52Z"/><path class="cls-1" d="M149.08,50.61a4.51,4.51,0,0,1-2.14-.51,3.72,3.72,0,0,1-1.53-1.49,4.68,4.68,0,0,1-.56-2.4,4.8,4.8,0,0,1,.58-2.43A4.15,4.15,0,0,1,147,42.22a4.51,4.51,0,0,1,2.17-.55,3.58,3.58,0,0,1,3.22,1.81l-.12.3.19-1.76h1.74v8.39h-1.89V48.22l.23.49a2.88,2.88,0,0,1-.39.51,5.24,5.24,0,0,1-.72.64,3.8,3.8,0,0,1-1,.54A4,4,0,0,1,149.08,50.61Zm.51-1.56a3,3,0,0,0,1.27-.26,2.6,2.6,0,0,0,.95-.75,2.82,2.82,0,0,0,.51-1.14V45.26a2.41,2.41,0,0,0-.56-1.06,2.78,2.78,0,0,0-1-.71,3,3,0,0,0-1.23-.26,2.66,2.66,0,0,0-1.4.37,2.62,2.62,0,0,0-1,1,3.11,3.11,0,0,0,0,3,2.83,2.83,0,0,0,1,1.06A2.75,2.75,0,0,0,149.59,49.05Z"/><path class="cls-1" d="M163.77,49.62a4.37,4.37,0,0,1-1.35.73,5.17,5.17,0,0,1-1.58.26,5.07,5.07,0,0,1-2.41-.55,4,4,0,0,1-1.63-1.54,4.51,4.51,0,0,1-.59-2.33,4.22,4.22,0,0,1,.63-2.32,4.48,4.48,0,0,1,1.63-1.52,4.54,4.54,0,0,1,2.18-.54,5.66,5.66,0,0,1,1.8.28,4.06,4.06,0,0,1,1.38.78l-1,1.21a4.18,4.18,0,0,0-.88-.49,2.88,2.88,0,0,0-1.19-.24,2.56,2.56,0,0,0-1.36.38,2.71,2.71,0,0,0-1,1,3,3,0,0,0-.35,1.45,2.9,2.9,0,0,0,.36,1.44,2.82,2.82,0,0,0,1,1,2.93,2.93,0,0,0,1.5.38,2.84,2.84,0,0,0,1-.16,3,3,0,0,0,.82-.45Z"/><path class="cls-1" d="M169.18,50.61a4.47,4.47,0,0,1-2.13-.51,3.66,3.66,0,0,1-1.53-1.49,4.69,4.69,0,0,1-.57-2.4,4.81,4.81,0,0,1,.59-2.43,4.15,4.15,0,0,1,1.58-1.56,4.46,4.46,0,0,1,2.17-.55,3.52,3.52,0,0,1,2,.54,3.62,3.62,0,0,1,1.23,1.27l-.12.3.18-1.76h1.74v8.39h-1.88V48.22l.22.49a3.27,3.27,0,0,1-.38.51,5.24,5.24,0,0,1-.72.64,3.86,3.86,0,0,1-1,.54A4,4,0,0,1,169.18,50.61Zm.51-1.56a3.11,3.11,0,0,0,1.28-.26,2.57,2.57,0,0,0,.94-.75,3,3,0,0,0,.52-1.14V45.26a2.54,2.54,0,0,0-.57-1.06,2.74,2.74,0,0,0-1-.71,3,3,0,0,0-1.24-.26,2.73,2.73,0,0,0-2.4,1.38,3,3,0,0,0-.37,1.52,2.86,2.86,0,0,0,.38,1.48,2.91,2.91,0,0,0,1,1.06A2.78,2.78,0,0,0,169.69,49.05Z"/><path class="cls-1" d="M180.47,50.61a4,4,0,0,1-3.59-2.14,4.76,4.76,0,0,1-.56-2.36,4.63,4.63,0,0,1,.59-2.39,4,4,0,0,1,1.58-1.52,4.68,4.68,0,0,1,2.23-.53,4.29,4.29,0,0,1,1.89.43A3.4,3.4,0,0,1,184,43.27l-.1.67V34.72h1.88V50.41h-1.88V48.32l.22.53a4.72,4.72,0,0,1-1.55,1.26A4.48,4.48,0,0,1,180.47,50.61Zm.59-1.6a3,3,0,0,0,1.33-.28,3,3,0,0,0,1-.76,2.93,2.93,0,0,0,.56-1.13v-1.6a2.54,2.54,0,0,0-.58-1.07,2.81,2.81,0,0,0-1-.72,3.2,3.2,0,0,0-1.29-.26,2.83,2.83,0,0,0-2.43,1.38,3.06,3.06,0,0,0,0,3,3,3,0,0,0,1,1A2.61,2.61,0,0,0,181.06,49Z"/><path class="cls-1" d="M188.44,39a1,1,0,0,1,.35-.75,1.16,1.16,0,0,1,.78-.31,1.1,1.1,0,0,1,.77.31,1,1,0,0,1,0,1.51,1.17,1.17,0,0,1-.77.29,1.24,1.24,0,0,1-.78-.29A1,1,0,0,1,188.44,39Zm.12,3h1.9v8.39h-1.9Z"/><path class="cls-1" d="M195.57,50.57a4.9,4.9,0,0,1-1.73-.31,3.35,3.35,0,0,1-1.39-.95l.79-1.09a4.23,4.23,0,0,0,1.09.76,2.66,2.66,0,0,0,1.85.15,1.23,1.23,0,0,0,.56-.34.94.94,0,0,0,.21-.63.92.92,0,0,0-.29-.72,2.51,2.51,0,0,0-.74-.42c-.3-.1-.63-.21-1-.3a3.69,3.69,0,0,1-1.58-.95,2.17,2.17,0,0,1-.55-1.48,2.5,2.5,0,0,1,.34-1.25,2.62,2.62,0,0,1,1-.95,3.29,3.29,0,0,1,1.62-.38,5,5,0,0,1,1.56.22,3.64,3.64,0,0,1,1.3.72l-.75,1.17a2.3,2.3,0,0,0-.86-.58,2.69,2.69,0,0,0-.9-.19,2.15,2.15,0,0,0-.68.11,1.22,1.22,0,0,0-.51.33.75.75,0,0,0-.19.53.82.82,0,0,0,.27.68,2.51,2.51,0,0,0,.74.42l.92.32a4.7,4.7,0,0,1,1.09.49,2.54,2.54,0,0,1,.78.75,2,2,0,0,1,.29,1.11,2.76,2.76,0,0,1-.35,1.39,2.46,2.46,0,0,1-1.08,1A3.91,3.91,0,0,1,195.57,50.57Z"/><path class="cls-1" d="M201.75,38.33h1.93v3.73H206v1.48h-2.29v6.87h-1.93V43.54h-1.52V42.06h1.52Z"/><path class="cls-1" d="M211.22,50.61a4.48,4.48,0,0,1-2.14-.51,3.72,3.72,0,0,1-1.53-1.49,4.69,4.69,0,0,1-.57-2.4,4.81,4.81,0,0,1,.59-2.43,4.15,4.15,0,0,1,1.58-1.56,4.46,4.46,0,0,1,2.17-.55,3.52,3.52,0,0,1,2,.54,3.62,3.62,0,0,1,1.23,1.27l-.12.3L214.6,42h1.74v8.39h-1.88V48.22l.22.49a2.72,2.72,0,0,1-.38.51,5.24,5.24,0,0,1-.72.64,3.71,3.71,0,0,1-1,.54A3.91,3.91,0,0,1,211.22,50.61Zm.5-1.56a3.08,3.08,0,0,0,1.28-.26,2.57,2.57,0,0,0,.94-.75,3,3,0,0,0,.52-1.14V45.26a2.54,2.54,0,0,0-.57-1.06,2.74,2.74,0,0,0-1-.71,3,3,0,0,0-1.24-.26,2.69,2.69,0,0,0-1.4.37,2.77,2.77,0,0,0-1,1,3,3,0,0,0-.37,1.52,2.86,2.86,0,0,0,.38,1.48,2.91,2.91,0,0,0,1,1.06A2.78,2.78,0,0,0,211.72,49.05Z"/><path class="cls-1" d="M38,29.34a29,29,0,0,0-1-4.07,31.47,31.47,0,0,0-1.69-3.49c-.16-.27-1.31-1.84-1.58-2.18a18.41,18.41,0,0,0-1.54-1.4s1.91,2.49,2,2.81,1.58,2.64,1.79,3.17A29,29,0,0,1,37,28.06c.22,1.22.48,3.09.64,3.72a9.91,9.91,0,0,1,.27,1.95,9,9,0,0,0,.42,1.66s0-1.76,0-2.5A33.4,33.4,0,0,0,38,29.34Z"/><path class="cls-1" d="M12.52,12.41s-2.06,2-2.28,2.29a20.9,20.9,0,0,0-1.69,2.22c-.27.53-1.6,2.44-1.86,3S5.14,23,5,23.45c-.35,1.16-1.11,4-1.38,5.3a27.11,27.11,0,0,0-.37,3s.88-2.78,1-3.24c.59-2.12,1.49-4.85,1.65-5.49S8.45,18.65,9,17.33s4.82-5.56,4.82-5.56Z"/><path class="cls-1" d="M40.32,24.72a6.06,6.06,0,0,0-.58-2c-.27-.43-2.18-3.61-2.18-3.61l-2.12-2.33-2.23-2-1.69-1.64a8,8,0,0,0-1.28-.48c-.21,0-1.11-.1-1.11-.1a1.1,1.1,0,0,0-.21-1.28c-.59-.69-1-1.06-1.28-1.38a9.28,9.28,0,0,0-1.59-1S25,7.48,24.86,7.37,23,6.53,23,6.53s-.74-.16-.74-.32a1.31,1.31,0,0,1,.05-.64c.11-.21,1.06-1.27,1.06-1.27S24.67,3,24.86,2.89a8.48,8.48,0,0,0,.72-.77l.47-.46s.16-.6-.05-.76-.21-.48-.8-.58S24.41,0,24,0a1.51,1.51,0,0,0-1.16.42c-.59.43-1,.62-1.22,1.24a5.24,5.24,0,0,1-.8,1.57A3.42,3.42,0,0,0,20,4.4c0,.22.11.59-.21.59s-1.41-.19-1.41-.19H16.19L14.86,6,13.53,7.06A20.25,20.25,0,0,1,12,8.38a18.28,18.28,0,0,0-2,1.33c-.27.26-2.39,2.39-2.5,2.54S5.2,14.64,5.1,15s-1.49,2.87-1.54,3-1,2.23-1,2.39S2,23.5,1.81,24s-.8,3.25-1,3.53a8.39,8.39,0,0,0-.74,3.1c.05,1.11-.27,4.19,0,4.51A12,12,0,0,1,.8,37.51l.32,2.28,0,2.92L1.44,45l1.11,1,1.8.42A13.13,13.13,0,0,1,5.73,46a13.84,13.84,0,0,0,2-1.54L9.61,44l2.12-.64s2-.85,2.28-1,2-1.43,2-1.43a30,30,0,0,1,2.3-2.76,18.22,18.22,0,0,0,1.78-2.09l1.11-1.14.69-.32,1.44,1.75A5.6,5.6,0,0,1,24,37.51c0,.21.79,1.11.88,1.59s.82,1.11,1.14,1.54a16.11,16.11,0,0,0,2.07,1.59l2.23,1.11s1,.8,1.27,1a1.87,1.87,0,0,1,.9.58c.59.58,1.22,1.12,1.22,1.12l1.17.15s1,0,1.11-.1,1-.43,1-.43a3.43,3.43,0,0,0,.74-.95c.16-.43.32-1.22.53-1.8s.58-1.91.69-2.39,0-.48.37-1,.53-.58.75-.85a6.05,6.05,0,0,0,.63-1.8v-1.8s-.1-5.1,0-5.63S40.32,25,40.32,24.72ZM25.88,9.88l.41.5,1.22,1.36.09.77-.45.32-.86-1-.5-1.45Zm-4.5-6.27A16.61,16.61,0,0,1,22.61,2.2c.23-.22.64-.68.64-.68l.81-.63.32.54-1,1.23L22.2,4.07,21,5S21.34,3.75,21.38,3.61Zm-.21,29.65c-.58.53-3.23,3.82-3.23,3.82l-2.23,2.39s-1.17,1.33-1.65,1.43-.1-.63-.1-.63l1.11-1s1.8-2.17,1.86-2.33,1.75-2.34,1.75-2.34l1.65-2.07,1.16-2.81-1.42,2.11-1.29,1.92A39.87,39.87,0,0,1,15.39,38a26.31,26.31,0,0,0-2.71,2.54,20.67,20.67,0,0,1-1.8,1.49L8.71,43s.74-1.27.84-1.48a9.74,9.74,0,0,1,1-1.22,4.16,4.16,0,0,0,.88-1.55c.09-.55.34-.68,0-1.27A13.08,13.08,0,0,1,10.62,39c-.16.16-.9,1.29-1.5,2.09-.37.5-1.23,2-1.45,2.14-.63.5-1.94,1.67-1.94,1.67a7.6,7.6,0,0,1-1.38.23c-.16,0-.31-.82-.31-1.09s.09-2.72.22-3.58c0-.28.37-2.32.37-2.32s.72-2.64.81-3a6.37,6.37,0,0,1,1.18-2.36,11.49,11.49,0,0,0,.55-1.62s-.28.37-.43.59c-.61.94-1.11,1.87-1.43,2.35A14.84,14.84,0,0,0,4,38c-.17.84-.73,6.31-.73,6.31l-.49.26-.53-.32a5.57,5.57,0,0,0-.16-1.59,8.22,8.22,0,0,1-.06-2.6c.06-.95.06-2.91.11-3.29s.37-2.49.53-3.39-.11-1-.11-1a5.5,5.5,0,0,1-.42.53,7.65,7.65,0,0,0-.27,1.54,9.34,9.34,0,0,1-.31,1.06,1,1,0,0,1-.38-.58,11.86,11.86,0,0,1,0-2.6c.06-.64.27-2.34.27-2.65a11.19,11.19,0,0,1,.85-3.29c.37-.37.32-1.7.64-2.18a16,16,0,0,0,.63-3.08c.11-.47.9-2.12,1.22-3.23a10.39,10.39,0,0,1,1.65-2.76c.32-.48,2.28-2.55,2.33-2.71s1.8-1.59,1.91-1.91A13.33,13.33,0,0,1,12.8,8.93c.27-.22,1.53-.92,1.74-1.13s2.23-1.7,2.23-1.7l.85,0L17,6.79,16,8,14.7,10.24s.74-.8,1-1S17,7.64,17.19,7.43A8.55,8.55,0,0,1,18.63,6.1c.42-.21.37.69.37.69a3.79,3.79,0,0,1-.22.85,8.67,8.67,0,0,0-.31,1.17l-.59,1.32a11.13,11.13,0,0,1-1,2c-.37.42-1.59,2.65-1.59,2.65L14,16.92l-1.54,3.4s.37-.43.53-.67,1.27-2.25,1.48-2.46a34,34,0,0,0,2.39-3.34c.25-.48,1.7-2.6,1.81-2.82S19.9,8.44,19.9,8.22A7.9,7.9,0,0,1,20.33,7l.89.16A4.44,4.44,0,0,1,22,8,4.86,4.86,0,0,1,22,9.5s-.21,2.44-.21,3.13-1,3.66-1,3.82a24.32,24.32,0,0,1-.52,2.44,33.18,33.18,0,0,1-1.49,4,31.48,31.48,0,0,0-1.65,4l-2.44,4.88L13,35.28l1.22-1.65,1.33-2.12L18,27.11,19.35,24l1-3.08a21.79,21.79,0,0,1,1.27-3.23,13,13,0,0,0,.9-3.35c.05-.47.37-2.92.43-3.08s-.06-3.12-.06-3.12l.64.79.83,1.83s.4,1.59.52,2.52c.05.44-.56,4.09-.61,5.36a12.9,12.9,0,0,1-.37,2.76L23.08,25l-.9,2.86.58-1,.91-2,1-4.14.41-2.77s.36-3,.36-3.28.32-1.8.32-1.8V15.9l-.27,3.25-.37,4.09-.29,2.29L24,28.33l-1,2A17.26,17.26,0,0,1,21.17,33.26Zm18.57,2.79a3.75,3.75,0,0,1-.48,1.67c-.13.46-.21.37-.42.53s-.21-.42-.27-.64a3.24,3.24,0,0,0-.43-1.56,7.23,7.23,0,0,0,0,1.4,11.87,11.87,0,0,0,0,1.75,5.51,5.51,0,0,1-.46,2.51c-.16.32-.1,1.15-.36,1.68a12.64,12.64,0,0,1-.72,1.3c-.32.5-.59,0-.59,0a10,10,0,0,1,0-1.24c.06-.27.16-3.13.22-3.82s0-2,0-2.44a2.12,2.12,0,0,0-.54-1.14,3.81,3.81,0,0,1-.37-.72s-.79-1.17-.69-1,.22,2.29.43,2.92,0,1.33.18,2.39a19.29,19.29,0,0,1,0,3.24,12.44,12.44,0,0,1,0,1.37.82.82,0,0,1-.81.79c-.16,0-.62-.41-.62-.41a4.32,4.32,0,0,0-1-1.17,2.74,2.74,0,0,1-.9-1.33,9.87,9.87,0,0,1-.59-1.85c0-.43-.74-1.28-.74-1.44S30,38,30,38l0,.63A7.53,7.53,0,0,0,30.42,40c.21.48.38,1.47.73,2.27.23.54-.11.71-.11.71l-.76-.89-.67-.75s-1.12-1.17-1.28-1.28A15.78,15.78,0,0,1,26.8,38.2c-.32-.48-.86-1.54-1-1.7a9.87,9.87,0,0,1-1.14-1.92l-.93-1.32L24,34l.58,1.64s1,1.49,1.38,2.12,1.27,2.28,1.27,2.28-1-1-1.27-1.38a38.05,38.05,0,0,1-2.44-3.23c-.9-1.43-.85-1.54-.85-1.54l.53-1.11a9.17,9.17,0,0,0,.85-1.54,12.1,12.1,0,0,1,1.06-2.34c.37-.58.16-1.32.27-1.64s.37-1.38.37-1.38l.37,1.62s.16,1.4.21,1.62.69,2.28.69,2.28,1.06,2.81,1.22,3.34a4.33,4.33,0,0,0,1,1.3l-.64-2a22.16,22.16,0,0,0-.9-2.28c-.16-.15-.53-2.34-.69-2.87s-.69-3.4-.69-3.4l.43-6.41V14.38l.53-.43c.53-.42.74,0,.74,0s.05.53.05.85.64,1.86.69,2.28a10.07,10.07,0,0,0,.64,2.07c.21.43,1.17,2.18,1.43,2.71s1,2.49,1.22,3.23.64,2.5.74,2.92a6.17,6.17,0,0,0,1,1.42l-.26-1.26s-2.07-6.58-2.36-7.06a26.36,26.36,0,0,1-1.57-3.71c-.05-.42-.32-2.12-.37-2.44a4,4,0,0,1,.1-1l.69.75.75.79.69.9.58,1s.37-.21.32-.37-.83-1.55-.83-1.55L30.14,14h1.09l.92,1,1.44,1.65a24.38,24.38,0,0,0,2.49,2.28c.64.37,1.33,1.91,1.48,2.12a8.84,8.84,0,0,0,.8,1.54,6.14,6.14,0,0,1,.8,1.91s.26,1.59.37,2.28.21,4.77.21,4.77S39.69,35.28,39.74,36.05Z"/><path class="cls-1" d="M212.92,14.66a3.44,3.44,0,0,1,.38-1.28,5.47,5.47,0,0,1,.78-1.12,8.13,8.13,0,0,1,2.09-1.69,11.9,11.9,0,0,1,1.18-.6,10.74,10.74,0,0,1,1.23-.47,11.33,11.33,0,0,1,1.27-.34A8.21,8.21,0,0,1,221.17,9c-.36.26-.74.48-1.11.7s-.75.42-1.13.62l-1.13.59c-.38.19-.76.37-1.12.56a14.12,14.12,0,0,0-2.08,1.33A6.49,6.49,0,0,0,212.92,14.66Z"/><path class="cls-1" d="M213.9,11.65a2.36,2.36,0,0,1-.05-.92,3.54,3.54,0,0,1,.28-.89,5.38,5.38,0,0,1,1.13-1.5,6.59,6.59,0,0,1,1.55-1.1,4.68,4.68,0,0,1,.93-.34,5.3,5.3,0,0,1,1-.14c.32,0,.63,0,.94,0l.92,0c.6,0,1.19.06,1.76,0A6.11,6.11,0,0,0,224,6.58a3.62,3.62,0,0,0,1.47-.84c.33-.33.64-.7,1-1-.09.1-.09.54-.12.69a10.79,10.79,0,0,1-.69,2.29,10.7,10.7,0,0,1-.68,1.41l-.1.17-.1.16-.21.32c-.14.21-.29.42-.46.63a4.94,4.94,0,0,1-1.17,1.11,7,7,0,0,1-.7.4,7.22,7.22,0,0,1-.72.29,8.48,8.48,0,0,1-1.47.42,9.6,9.6,0,0,1-3,.16,12.6,12.6,0,0,0,2.89-.62,13.16,13.16,0,0,0,1.35-.55,7.2,7.2,0,0,0,1.21-.73,4.63,4.63,0,0,0,.91-1c.14-.19.26-.39.39-.6l.18-.32.09-.16.09-.15a11.85,11.85,0,0,0,.57-1.3c.18-.46.31.07-.34.28a6.27,6.27,0,0,1-1.94.27c-.64,0-1.25-.06-1.85-.11s-1.19-.11-1.76-.12a5.69,5.69,0,0,0-.83.06,3.72,3.72,0,0,0-.79.22,6.51,6.51,0,0,0-1.49.85A5.09,5.09,0,0,0,214.41,10,2.59,2.59,0,0,0,213.9,11.65Z"/><path class="cls-1" d="M212.92,14.55c-.23-.7-.48-1.35-.72-2s-.51-1.29-.77-1.92-.54-1.25-.84-1.87c-.07-.16-.16-.3-.23-.46l-.25-.45c-.08-.16-.18-.29-.27-.45a1.7,1.7,0,0,0-.15-.22L209.53,7a3.2,3.2,0,0,1,1,.56,3.69,3.69,0,0,1,.41.38,4.83,4.83,0,0,1,.37.42,8,8,0,0,1,1.12,1.91,9.14,9.14,0,0,1,.59,2.12A5.31,5.31,0,0,1,212.92,14.55Z"/><path class="cls-1" d="M213.23,8.68A4,4,0,0,0,212.29,7a5.4,5.4,0,0,0-1.54-1.15,9.19,9.19,0,0,0-1.82-.67c-.63-.17-1.28-.3-2-.43l.63-.51c0,.88,0,1.76,0,2.64,0,.44,0,.88,0,1.3a6,6,0,0,0,0,.61,5.72,5.72,0,0,0,.11.57A4.83,4.83,0,0,0,209,11.4a5.1,5.1,0,0,0,2.19,1.3,4.34,4.34,0,0,1-2.56-.87,4.94,4.94,0,0,1-1.7-2.24c-.08-.23-.14-.46-.2-.7a6,6,0,0,1-.09-.71c0-.47,0-.9,0-1.34,0-.88,0-1.77,0-2.65V3.54l.62.14a18.87,18.87,0,0,1,2,.54,7.82,7.82,0,0,1,1.94.92,5.12,5.12,0,0,1,1.51,1.53A3.5,3.5,0,0,1,213.23,8.68Z"/></g></g></svg>